<?xml version="1.0" encoding="utf-8" standalone="no"?>
<!DOCTYPE svg PUBLIC "-//W3C//DTD SVG 1.1//EN"
  "http://www.w3.org/Graphics/SVG/1.1/DTD/svg11.dtd">
<svg xmlns:xlink="http://www.w3.org/1999/xlink" width="720pt" height="405pt" viewBox="0 0 720 405" xmlns="http://www.w3.org/2000/svg" version="1.1">
 <metadata>
  <rdf:RDF xmlns:dc="http://purl.org/dc/elements/1.1/" xmlns:cc="http://creativecommons.org/ns#" xmlns:rdf="http://www.w3.org/1999/02/22-rdf-syntax-ns#">
   <cc:Work>
    <dc:type rdf:resource="http://purl.org/dc/dcmitype/StillImage"/>
    <dc:date>2025-10-17T14:37:25.937923</dc:date>
    <dc:format>image/svg+xml</dc:format>
    <dc:creator>
     <cc:Agent>
      <dc:title>Matplotlib v3.10.3, https://matplotlib.org/</dc:title>
     </cc:Agent>
    </dc:creator>
   </cc:Work>
  </rdf:RDF>
 </metadata>
 <defs>
  <style type="text/css">*{stroke-linejoin: round; stroke-linecap: butt}</style>
 </defs>
 <g id="figure_1">
  <g id="patch_1">
   <path d="M 0 405 
L 720 405 
L 720 0 
L 0 0 
z
" style="fill: #ffffff"/>
  </g>
  <g id="axes_1">
   <g id="patch_2">
    <path d="M 47.72 363.04 
L 709.2 363.04 
L 709.2 26.88 
L 47.72 26.88 
z
" style="fill: #ffffff"/>
   </g>
   <g id="FillBetweenPolyCollection_1">
    <defs>
     <path id="m05403f7891" d="M 77.787273 -57.24 
L 77.787273 -57.24 
L 83.861469 -286.44 
L 89.935666 -286.44 
L 96.009862 -294.928889 
L 102.084059 -294.928889 
L 108.158255 -297.354286 
L 114.232452 -307.276364 
L 120.306648 -309.692174 
L 126.380845 -317 
L 132.455041 -324.64 
L 138.529238 -328.884444 
L 144.603434 -338.338852 
L 150.677631 -344.849911 
L 156.751827 -362.84 
L 162.826024 -362.84 
L 168.90022 -362.84 
L 174.974417 -362.84 
L 181.048613 -362.84 
L 187.12281 -362.84 
L 193.197006 -362.84 
L 199.271203 -362.84 
L 205.345399 -362.84 
L 211.419596 -362.84 
L 217.493792 -362.84 
L 223.567989 -362.84 
L 229.642185 -362.84 
L 235.716382 -362.84 
L 241.790579 -362.84 
L 247.864775 -362.84 
L 253.938972 -362.84 
L 260.013168 -362.84 
L 266.087365 -362.84 
L 272.161561 -362.84 
L 278.235758 -362.84 
L 284.309954 -362.84 
L 290.384151 -362.84 
L 296.458347 -362.84 
L 302.532544 -362.84 
L 308.60674 -362.84 
L 314.680937 -362.84 
L 320.755133 -362.84 
L 326.82933 -362.84 
L 332.903526 -362.84 
L 338.977723 -362.84 
L 345.051919 -362.84 
L 351.126116 -362.84 
L 357.200312 -362.84 
L 363.274509 -362.84 
L 369.348705 -362.84 
L 375.422902 -362.84 
L 381.497098 -362.84 
L 387.571295 -362.84 
L 393.645491 -362.84 
L 399.719688 -362.84 
L 405.793884 -362.84 
L 411.868081 -362.84 
L 417.942277 -362.84 
L 424.016474 -362.84 
L 430.09067 -362.84 
L 436.164867 -362.84 
L 442.239063 -362.84 
L 448.31326 -362.84 
L 454.387456 -362.84 
L 460.461653 -362.84 
L 466.535849 -362.84 
L 472.610046 -362.84 
L 478.684242 -362.84 
L 484.758439 -362.84 
L 490.832635 -362.84 
L 496.906832 -362.84 
L 502.981028 -362.84 
L 509.055225 -362.84 
L 515.129421 -362.84 
L 521.203618 -362.84 
L 527.277815 -362.84 
L 533.352011 -362.84 
L 539.426208 -362.84 
L 545.500404 -362.84 
L 551.574601 -362.84 
L 557.648797 -362.84 
L 563.722994 -362.84 
L 569.79719 -362.84 
L 575.871387 -362.84 
L 581.945583 -362.84 
L 588.01978 -362.84 
L 594.093976 -362.84 
L 600.168173 -362.84 
L 606.242369 -362.84 
L 612.316566 -362.84 
L 618.390762 -362.84 
L 624.464959 -362.84 
L 630.539155 -362.84 
L 636.613352 -362.84 
L 642.687548 -362.84 
L 648.761745 -362.84 
L 654.835941 -362.84 
L 660.910138 -362.84 
L 666.984334 -362.84 
L 673.058531 -362.84 
L 679.132727 -362.84 
L 679.132727 -362.84 
L 679.132727 -362.84 
L 673.058531 -362.84 
L 666.984334 -362.84 
L 660.910138 -362.84 
L 654.835941 -362.84 
L 648.761745 -362.84 
L 642.687548 -362.84 
L 636.613352 -362.84 
L 630.539155 -362.84 
L 624.464959 -362.84 
L 618.390762 -362.84 
L 612.316566 -362.84 
L 606.242369 -362.84 
L 600.168173 -362.84 
L 594.093976 -362.84 
L 588.01978 -362.84 
L 581.945583 -362.84 
L 575.871387 -362.84 
L 569.79719 -362.84 
L 563.722994 -362.84 
L 557.648797 -362.84 
L 551.574601 -362.84 
L 545.500404 -362.84 
L 539.426208 -362.84 
L 533.352011 -362.84 
L 527.277815 -362.84 
L 521.203618 -362.84 
L 515.129421 -362.84 
L 509.055225 -362.84 
L 502.981028 -362.84 
L 496.906832 -362.84 
L 490.832635 -362.84 
L 484.758439 -362.84 
L 478.684242 -362.84 
L 472.610046 -362.84 
L 466.535849 -362.84 
L 460.461653 -362.84 
L 454.387456 -362.84 
L 448.31326 -362.84 
L 442.239063 -362.84 
L 436.164867 -362.84 
L 430.09067 -362.84 
L 424.016474 -362.84 
L 417.942277 -362.84 
L 411.868081 -362.84 
L 405.793884 -362.84 
L 399.719688 -362.84 
L 393.645491 -362.84 
L 387.571295 -362.84 
L 381.497098 -362.84 
L 375.422902 -362.84 
L 369.348705 -362.84 
L 363.274509 -362.84 
L 357.200312 -362.84 
L 351.126116 -362.84 
L 345.051919 -362.84 
L 338.977723 -362.84 
L 332.903526 -362.84 
L 326.82933 -362.84 
L 320.755133 -362.84 
L 314.680937 -362.84 
L 308.60674 -362.84 
L 302.532544 -362.84 
L 296.458347 -362.84 
L 290.384151 -362.84 
L 284.309954 -362.84 
L 278.235758 -362.84 
L 272.161561 -362.84 
L 266.087365 -362.84 
L 260.013168 -362.84 
L 253.938972 -362.84 
L 247.864775 -362.84 
L 241.790579 -362.84 
L 235.716382 -362.84 
L 229.642185 -362.84 
L 223.567989 -362.84 
L 217.493792 -362.84 
L 211.419596 -362.84 
L 205.345399 -362.84 
L 199.271203 -362.84 
L 193.197006 -362.84 
L 187.12281 -362.84 
L 181.048613 -362.84 
L 174.974417 -362.84 
L 168.90022 -362.84 
L 162.826024 -362.84 
L 156.751827 -362.84 
L 150.677631 -362.84 
L 144.603434 -362.84 
L 138.529238 -362.84 
L 132.455041 -362.84 
L 126.380845 -362.84 
L 120.306648 -362.84 
L 114.232452 -362.84 
L 108.158255 -362.84 
L 102.084059 -362.84 
L 96.009862 -362.84 
L 89.935666 -362.84 
L 83.861469 -362.84 
L 77.787273 -57.24 
z
" style="stroke: #808080; stroke-opacity: 0.2"/>
    </defs>
    <g clip-path="url(#pf9b23eeae1)">
     <use xlink:href="#m05403f7891" x="0" y="405" style="fill: #808080; fill-opacity: 0.2; stroke: #808080; stroke-opacity: 0.2"/>
    </g>
   </g>
   <g id="matplotlib.axis_1">
    <g id="xtick_1">
     <g id="line2d_1">
      <defs>
       <path id="m8babe116ca" d="M 0 0 
L 0 3.5 
" style="stroke: #000000; stroke-width: 0.8"/>
      </defs>
      <g>
       <use xlink:href="#m8babe116ca" x="77.787273" y="363.04" style="stroke: #000000; stroke-width: 0.8"/>
      </g>
     </g>
     <g id="text_1">
      <!-- 0.0 -->
      <g transform="translate(69.83571 377.638438) scale(0.1 -0.1)">
       <defs>
        <path id="DejaVuSans-30" d="M 2034 4250 
Q 1547 4250 1301 3770 
Q 1056 3291 1056 2328 
Q 1056 1369 1301 889 
Q 1547 409 2034 409 
Q 2525 409 2770 889 
Q 3016 1369 3016 2328 
Q 3016 3291 2770 3770 
Q 2525 4250 2034 4250 
z
M 2034 4750 
Q 2819 4750 3233 4129 
Q 3647 3509 3647 2328 
Q 3647 1150 3233 529 
Q 2819 -91 2034 -91 
Q 1250 -91 836 529 
Q 422 1150 422 2328 
Q 422 3509 836 4129 
Q 1250 4750 2034 4750 
z
" transform="scale(0.015625)"/>
        <path id="DejaVuSans-2e" d="M 684 794 
L 1344 794 
L 1344 0 
L 684 0 
L 684 794 
z
" transform="scale(0.015625)"/>
       </defs>
       <use xlink:href="#DejaVuSans-30"/>
       <use xlink:href="#DejaVuSans-2e" transform="translate(63.623047 0)"/>
       <use xlink:href="#DejaVuSans-30" transform="translate(95.410156 0)"/>
      </g>
     </g>
    </g>
    <g id="xtick_2">
     <g id="line2d_2">
      <g>
       <use xlink:href="#m8babe116ca" x="198.056364" y="363.04" style="stroke: #000000; stroke-width: 0.8"/>
      </g>
     </g>
     <g id="text_2">
      <!-- 0.2 -->
      <g transform="translate(190.104801 377.638438) scale(0.1 -0.1)">
       <defs>
        <path id="DejaVuSans-32" d="M 1228 531 
L 3431 531 
L 3431 0 
L 469 0 
L 469 531 
Q 828 903 1448 1529 
Q 2069 2156 2228 2338 
Q 2531 2678 2651 2914 
Q 2772 3150 2772 3378 
Q 2772 3750 2511 3984 
Q 2250 4219 1831 4219 
Q 1534 4219 1204 4116 
Q 875 4013 500 3803 
L 500 4441 
Q 881 4594 1212 4672 
Q 1544 4750 1819 4750 
Q 2544 4750 2975 4387 
Q 3406 4025 3406 3419 
Q 3406 3131 3298 2873 
Q 3191 2616 2906 2266 
Q 2828 2175 2409 1742 
Q 1991 1309 1228 531 
z
" transform="scale(0.015625)"/>
       </defs>
       <use xlink:href="#DejaVuSans-30"/>
       <use xlink:href="#DejaVuSans-2e" transform="translate(63.623047 0)"/>
       <use xlink:href="#DejaVuSans-32" transform="translate(95.410156 0)"/>
      </g>
     </g>
    </g>
    <g id="xtick_3">
     <g id="line2d_3">
      <g>
       <use xlink:href="#m8babe116ca" x="318.325455" y="363.04" style="stroke: #000000; stroke-width: 0.8"/>
      </g>
     </g>
     <g id="text_3">
      <!-- 0.4 -->
      <g transform="translate(310.373892 377.638438) scale(0.1 -0.1)">
       <defs>
        <path id="DejaVuSans-34" d="M 2419 4116 
L 825 1625 
L 2419 1625 
L 2419 4116 
z
M 2253 4666 
L 3047 4666 
L 3047 1625 
L 3713 1625 
L 3713 1100 
L 3047 1100 
L 3047 0 
L 2419 0 
L 2419 1100 
L 313 1100 
L 313 1709 
L 2253 4666 
z
" transform="scale(0.015625)"/>
       </defs>
       <use xlink:href="#DejaVuSans-30"/>
       <use xlink:href="#DejaVuSans-2e" transform="translate(63.623047 0)"/>
       <use xlink:href="#DejaVuSans-34" transform="translate(95.410156 0)"/>
      </g>
     </g>
    </g>
    <g id="xtick_4">
     <g id="line2d_4">
      <g>
       <use xlink:href="#m8babe116ca" x="438.594545" y="363.04" style="stroke: #000000; stroke-width: 0.8"/>
      </g>
     </g>
     <g id="text_4">
      <!-- 0.6 -->
      <g transform="translate(430.642983 377.638438) scale(0.1 -0.1)">
       <defs>
        <path id="DejaVuSans-36" d="M 2113 2584 
Q 1688 2584 1439 2293 
Q 1191 2003 1191 1497 
Q 1191 994 1439 701 
Q 1688 409 2113 409 
Q 2538 409 2786 701 
Q 3034 994 3034 1497 
Q 3034 2003 2786 2293 
Q 2538 2584 2113 2584 
z
M 3366 4563 
L 3366 3988 
Q 3128 4100 2886 4159 
Q 2644 4219 2406 4219 
Q 1781 4219 1451 3797 
Q 1122 3375 1075 2522 
Q 1259 2794 1537 2939 
Q 1816 3084 2150 3084 
Q 2853 3084 3261 2657 
Q 3669 2231 3669 1497 
Q 3669 778 3244 343 
Q 2819 -91 2113 -91 
Q 1303 -91 875 529 
Q 447 1150 447 2328 
Q 447 3434 972 4092 
Q 1497 4750 2381 4750 
Q 2619 4750 2861 4703 
Q 3103 4656 3366 4563 
z
" transform="scale(0.015625)"/>
       </defs>
       <use xlink:href="#DejaVuSans-30"/>
       <use xlink:href="#DejaVuSans-2e" transform="translate(63.623047 0)"/>
       <use xlink:href="#DejaVuSans-36" transform="translate(95.410156 0)"/>
      </g>
     </g>
    </g>
    <g id="xtick_5">
     <g id="line2d_5">
      <g>
       <use xlink:href="#m8babe116ca" x="558.863636" y="363.04" style="stroke: #000000; stroke-width: 0.8"/>
      </g>
     </g>
     <g id="text_5">
      <!-- 0.8 -->
      <g transform="translate(550.912074 377.638438) scale(0.1 -0.1)">
       <defs>
        <path id="DejaVuSans-38" d="M 2034 2216 
Q 1584 2216 1326 1975 
Q 1069 1734 1069 1313 
Q 1069 891 1326 650 
Q 1584 409 2034 409 
Q 2484 409 2743 651 
Q 3003 894 3003 1313 
Q 3003 1734 2745 1975 
Q 2488 2216 2034 2216 
z
M 1403 2484 
Q 997 2584 770 2862 
Q 544 3141 544 3541 
Q 544 4100 942 4425 
Q 1341 4750 2034 4750 
Q 2731 4750 3128 4425 
Q 3525 4100 3525 3541 
Q 3525 3141 3298 2862 
Q 3072 2584 2669 2484 
Q 3125 2378 3379 2068 
Q 3634 1759 3634 1313 
Q 3634 634 3220 271 
Q 2806 -91 2034 -91 
Q 1263 -91 848 271 
Q 434 634 434 1313 
Q 434 1759 690 2068 
Q 947 2378 1403 2484 
z
M 1172 3481 
Q 1172 3119 1398 2916 
Q 1625 2713 2034 2713 
Q 2441 2713 2670 2916 
Q 2900 3119 2900 3481 
Q 2900 3844 2670 4047 
Q 2441 4250 2034 4250 
Q 1625 4250 1398 4047 
Q 1172 3844 1172 3481 
z
" transform="scale(0.015625)"/>
       </defs>
       <use xlink:href="#DejaVuSans-30"/>
       <use xlink:href="#DejaVuSans-2e" transform="translate(63.623047 0)"/>
       <use xlink:href="#DejaVuSans-38" transform="translate(95.410156 0)"/>
      </g>
     </g>
    </g>
    <g id="xtick_6">
     <g id="line2d_6">
      <g>
       <use xlink:href="#m8babe116ca" x="679.132727" y="363.04" style="stroke: #000000; stroke-width: 0.8"/>
      </g>
     </g>
     <g id="text_6">
      <!-- 1.0 -->
      <g transform="translate(671.181165 377.638438) scale(0.1 -0.1)">
       <defs>
        <path id="DejaVuSans-31" d="M 794 531 
L 1825 531 
L 1825 4091 
L 703 3866 
L 703 4441 
L 1819 4666 
L 2450 4666 
L 2450 531 
L 3481 531 
L 3481 0 
L 794 0 
L 794 531 
z
" transform="scale(0.015625)"/>
       </defs>
       <use xlink:href="#DejaVuSans-31"/>
       <use xlink:href="#DejaVuSans-2e" transform="translate(63.623047 0)"/>
       <use xlink:href="#DejaVuSans-30" transform="translate(95.410156 0)"/>
      </g>
     </g>
    </g>
    <g id="text_7">
     <!-- False Positive Rate -->
     <g transform="translate(331.993594 391.316563) scale(0.1 -0.1)">
      <defs>
       <path id="DejaVuSans-46" d="M 628 4666 
L 3309 4666 
L 3309 4134 
L 1259 4134 
L 1259 2759 
L 3109 2759 
L 3109 2228 
L 1259 2228 
L 1259 0 
L 628 0 
L 628 4666 
z
" transform="scale(0.015625)"/>
       <path id="DejaVuSans-61" d="M 2194 1759 
Q 1497 1759 1228 1600 
Q 959 1441 959 1056 
Q 959 750 1161 570 
Q 1363 391 1709 391 
Q 2188 391 2477 730 
Q 2766 1069 2766 1631 
L 2766 1759 
L 2194 1759 
z
M 3341 1997 
L 3341 0 
L 2766 0 
L 2766 531 
Q 2569 213 2275 61 
Q 1981 -91 1556 -91 
Q 1019 -91 701 211 
Q 384 513 384 1019 
Q 384 1609 779 1909 
Q 1175 2209 1959 2209 
L 2766 2209 
L 2766 2266 
Q 2766 2663 2505 2880 
Q 2244 3097 1772 3097 
Q 1472 3097 1187 3025 
Q 903 2953 641 2809 
L 641 3341 
Q 956 3463 1253 3523 
Q 1550 3584 1831 3584 
Q 2591 3584 2966 3190 
Q 3341 2797 3341 1997 
z
" transform="scale(0.015625)"/>
       <path id="DejaVuSans-6c" d="M 603 4863 
L 1178 4863 
L 1178 0 
L 603 0 
L 603 4863 
z
" transform="scale(0.015625)"/>
       <path id="DejaVuSans-73" d="M 2834 3397 
L 2834 2853 
Q 2591 2978 2328 3040 
Q 2066 3103 1784 3103 
Q 1356 3103 1142 2972 
Q 928 2841 928 2578 
Q 928 2378 1081 2264 
Q 1234 2150 1697 2047 
L 1894 2003 
Q 2506 1872 2764 1633 
Q 3022 1394 3022 966 
Q 3022 478 2636 193 
Q 2250 -91 1575 -91 
Q 1294 -91 989 -36 
Q 684 19 347 128 
L 347 722 
Q 666 556 975 473 
Q 1284 391 1588 391 
Q 1994 391 2212 530 
Q 2431 669 2431 922 
Q 2431 1156 2273 1281 
Q 2116 1406 1581 1522 
L 1381 1569 
Q 847 1681 609 1914 
Q 372 2147 372 2553 
Q 372 3047 722 3315 
Q 1072 3584 1716 3584 
Q 2034 3584 2315 3537 
Q 2597 3491 2834 3397 
z
" transform="scale(0.015625)"/>
       <path id="DejaVuSans-65" d="M 3597 1894 
L 3597 1613 
L 953 1613 
Q 991 1019 1311 708 
Q 1631 397 2203 397 
Q 2534 397 2845 478 
Q 3156 559 3463 722 
L 3463 178 
Q 3153 47 2828 -22 
Q 2503 -91 2169 -91 
Q 1331 -91 842 396 
Q 353 884 353 1716 
Q 353 2575 817 3079 
Q 1281 3584 2069 3584 
Q 2775 3584 3186 3129 
Q 3597 2675 3597 1894 
z
M 3022 2063 
Q 3016 2534 2758 2815 
Q 2500 3097 2075 3097 
Q 1594 3097 1305 2825 
Q 1016 2553 972 2059 
L 3022 2063 
z
" transform="scale(0.015625)"/>
       <path id="DejaVuSans-20" transform="scale(0.015625)"/>
       <path id="DejaVuSans-50" d="M 1259 4147 
L 1259 2394 
L 2053 2394 
Q 2494 2394 2734 2622 
Q 2975 2850 2975 3272 
Q 2975 3691 2734 3919 
Q 2494 4147 2053 4147 
L 1259 4147 
z
M 628 4666 
L 2053 4666 
Q 2838 4666 3239 4311 
Q 3641 3956 3641 3272 
Q 3641 2581 3239 2228 
Q 2838 1875 2053 1875 
L 1259 1875 
L 1259 0 
L 628 0 
L 628 4666 
z
" transform="scale(0.015625)"/>
       <path id="DejaVuSans-6f" d="M 1959 3097 
Q 1497 3097 1228 2736 
Q 959 2375 959 1747 
Q 959 1119 1226 758 
Q 1494 397 1959 397 
Q 2419 397 2687 759 
Q 2956 1122 2956 1747 
Q 2956 2369 2687 2733 
Q 2419 3097 1959 3097 
z
M 1959 3584 
Q 2709 3584 3137 3096 
Q 3566 2609 3566 1747 
Q 3566 888 3137 398 
Q 2709 -91 1959 -91 
Q 1206 -91 779 398 
Q 353 888 353 1747 
Q 353 2609 779 3096 
Q 1206 3584 1959 3584 
z
" transform="scale(0.015625)"/>
       <path id="DejaVuSans-69" d="M 603 3500 
L 1178 3500 
L 1178 0 
L 603 0 
L 603 3500 
z
M 603 4863 
L 1178 4863 
L 1178 4134 
L 603 4134 
L 603 4863 
z
" transform="scale(0.015625)"/>
       <path id="DejaVuSans-74" d="M 1172 4494 
L 1172 3500 
L 2356 3500 
L 2356 3053 
L 1172 3053 
L 1172 1153 
Q 1172 725 1289 603 
Q 1406 481 1766 481 
L 2356 481 
L 2356 0 
L 1766 0 
Q 1100 0 847 248 
Q 594 497 594 1153 
L 594 3053 
L 172 3053 
L 172 3500 
L 594 3500 
L 594 4494 
L 1172 4494 
z
" transform="scale(0.015625)"/>
       <path id="DejaVuSans-76" d="M 191 3500 
L 800 3500 
L 1894 563 
L 2988 3500 
L 3597 3500 
L 2284 0 
L 1503 0 
L 191 3500 
z
" transform="scale(0.015625)"/>
       <path id="DejaVuSans-52" d="M 2841 2188 
Q 3044 2119 3236 1894 
Q 3428 1669 3622 1275 
L 4263 0 
L 3584 0 
L 2988 1197 
Q 2756 1666 2539 1819 
Q 2322 1972 1947 1972 
L 1259 1972 
L 1259 0 
L 628 0 
L 628 4666 
L 2053 4666 
Q 2853 4666 3247 4331 
Q 3641 3997 3641 3322 
Q 3641 2881 3436 2590 
Q 3231 2300 2841 2188 
z
M 1259 4147 
L 1259 2491 
L 2053 2491 
Q 2509 2491 2742 2702 
Q 2975 2913 2975 3322 
Q 2975 3731 2742 3939 
Q 2509 4147 2053 4147 
L 1259 4147 
z
" transform="scale(0.015625)"/>
      </defs>
      <use xlink:href="#DejaVuSans-46"/>
      <use xlink:href="#DejaVuSans-61" transform="translate(48.394531 0)"/>
      <use xlink:href="#DejaVuSans-6c" transform="translate(109.673828 0)"/>
      <use xlink:href="#DejaVuSans-73" transform="translate(137.457031 0)"/>
      <use xlink:href="#DejaVuSans-65" transform="translate(189.556641 0)"/>
      <use xlink:href="#DejaVuSans-20" transform="translate(251.080078 0)"/>
      <use xlink:href="#DejaVuSans-50" transform="translate(282.867188 0)"/>
      <use xlink:href="#DejaVuSans-6f" transform="translate(339.544922 0)"/>
      <use xlink:href="#DejaVuSans-73" transform="translate(400.726562 0)"/>
      <use xlink:href="#DejaVuSans-69" transform="translate(452.826172 0)"/>
      <use xlink:href="#DejaVuSans-74" transform="translate(480.609375 0)"/>
      <use xlink:href="#DejaVuSans-69" transform="translate(519.818359 0)"/>
      <use xlink:href="#DejaVuSans-76" transform="translate(547.601562 0)"/>
      <use xlink:href="#DejaVuSans-65" transform="translate(606.78125 0)"/>
      <use xlink:href="#DejaVuSans-20" transform="translate(668.304688 0)"/>
      <use xlink:href="#DejaVuSans-52" transform="translate(700.091797 0)"/>
      <use xlink:href="#DejaVuSans-61" transform="translate(767.324219 0)"/>
      <use xlink:href="#DejaVuSans-74" transform="translate(828.603516 0)"/>
      <use xlink:href="#DejaVuSans-65" transform="translate(867.8125 0)"/>
     </g>
    </g>
   </g>
   <g id="matplotlib.axis_2">
    <g id="ytick_1">
     <g id="line2d_7">
      <defs>
       <path id="m32034b03cb" d="M 0 0 
L -3.5 0 
" style="stroke: #000000; stroke-width: 0.8"/>
      </defs>
      <g>
       <use xlink:href="#m32034b03cb" x="47.72" y="347.76" style="stroke: #000000; stroke-width: 0.8"/>
      </g>
     </g>
     <g id="text_8">
      <!-- 0.0 -->
      <g transform="translate(24.816875 351.559219) scale(0.1 -0.1)">
       <use xlink:href="#DejaVuSans-30"/>
       <use xlink:href="#DejaVuSans-2e" transform="translate(63.623047 0)"/>
       <use xlink:href="#DejaVuSans-30" transform="translate(95.410156 0)"/>
      </g>
     </g>
    </g>
    <g id="ytick_2">
     <g id="line2d_8">
      <g>
       <use xlink:href="#m32034b03cb" x="47.72" y="286.64" style="stroke: #000000; stroke-width: 0.8"/>
      </g>
     </g>
     <g id="text_9">
      <!-- 0.2 -->
      <g transform="translate(24.816875 290.439219) scale(0.1 -0.1)">
       <use xlink:href="#DejaVuSans-30"/>
       <use xlink:href="#DejaVuSans-2e" transform="translate(63.623047 0)"/>
       <use xlink:href="#DejaVuSans-32" transform="translate(95.410156 0)"/>
      </g>
     </g>
    </g>
    <g id="ytick_3">
     <g id="line2d_9">
      <g>
       <use xlink:href="#m32034b03cb" x="47.72" y="225.52" style="stroke: #000000; stroke-width: 0.8"/>
      </g>
     </g>
     <g id="text_10">
      <!-- 0.4 -->
      <g transform="translate(24.816875 229.319219) scale(0.1 -0.1)">
       <use xlink:href="#DejaVuSans-30"/>
       <use xlink:href="#DejaVuSans-2e" transform="translate(63.623047 0)"/>
       <use xlink:href="#DejaVuSans-34" transform="translate(95.410156 0)"/>
      </g>
     </g>
    </g>
    <g id="ytick_4">
     <g id="line2d_10">
      <g>
       <use xlink:href="#m32034b03cb" x="47.72" y="164.4" style="stroke: #000000; stroke-width: 0.8"/>
      </g>
     </g>
     <g id="text_11">
      <!-- 0.6 -->
      <g transform="translate(24.816875 168.199219) scale(0.1 -0.1)">
       <use xlink:href="#DejaVuSans-30"/>
       <use xlink:href="#DejaVuSans-2e" transform="translate(63.623047 0)"/>
       <use xlink:href="#DejaVuSans-36" transform="translate(95.410156 0)"/>
      </g>
     </g>
    </g>
    <g id="ytick_5">
     <g id="line2d_11">
      <g>
       <use xlink:href="#m32034b03cb" x="47.72" y="103.28" style="stroke: #000000; stroke-width: 0.8"/>
      </g>
     </g>
     <g id="text_12">
      <!-- 0.8 -->
      <g transform="translate(24.816875 107.079219) scale(0.1 -0.1)">
       <use xlink:href="#DejaVuSans-30"/>
       <use xlink:href="#DejaVuSans-2e" transform="translate(63.623047 0)"/>
       <use xlink:href="#DejaVuSans-38" transform="translate(95.410156 0)"/>
      </g>
     </g>
    </g>
    <g id="ytick_6">
     <g id="line2d_12">
      <g>
       <use xlink:href="#m32034b03cb" x="47.72" y="42.16" style="stroke: #000000; stroke-width: 0.8"/>
      </g>
     </g>
     <g id="text_13">
      <!-- 1.0 -->
      <g transform="translate(24.816875 45.959219) scale(0.1 -0.1)">
       <use xlink:href="#DejaVuSans-31"/>
       <use xlink:href="#DejaVuSans-2e" transform="translate(63.623047 0)"/>
       <use xlink:href="#DejaVuSans-30" transform="translate(95.410156 0)"/>
      </g>
     </g>
    </g>
    <g id="text_14">
     <!-- True Positive Rate -->
     <g transform="translate(18.737187 239.489687) rotate(-90) scale(0.1 -0.1)">
      <defs>
       <path id="DejaVuSans-54" d="M -19 4666 
L 3928 4666 
L 3928 4134 
L 2272 4134 
L 2272 0 
L 1638 0 
L 1638 4134 
L -19 4134 
L -19 4666 
z
" transform="scale(0.015625)"/>
       <path id="DejaVuSans-72" d="M 2631 2963 
Q 2534 3019 2420 3045 
Q 2306 3072 2169 3072 
Q 1681 3072 1420 2755 
Q 1159 2438 1159 1844 
L 1159 0 
L 581 0 
L 581 3500 
L 1159 3500 
L 1159 2956 
Q 1341 3275 1631 3429 
Q 1922 3584 2338 3584 
Q 2397 3584 2469 3576 
Q 2541 3569 2628 3553 
L 2631 2963 
z
" transform="scale(0.015625)"/>
       <path id="DejaVuSans-75" d="M 544 1381 
L 544 3500 
L 1119 3500 
L 1119 1403 
Q 1119 906 1312 657 
Q 1506 409 1894 409 
Q 2359 409 2629 706 
Q 2900 1003 2900 1516 
L 2900 3500 
L 3475 3500 
L 3475 0 
L 2900 0 
L 2900 538 
Q 2691 219 2414 64 
Q 2138 -91 1772 -91 
Q 1169 -91 856 284 
Q 544 659 544 1381 
z
M 1991 3584 
L 1991 3584 
z
" transform="scale(0.015625)"/>
      </defs>
      <use xlink:href="#DejaVuSans-54"/>
      <use xlink:href="#DejaVuSans-72" transform="translate(46.333984 0)"/>
      <use xlink:href="#DejaVuSans-75" transform="translate(87.447266 0)"/>
      <use xlink:href="#DejaVuSans-65" transform="translate(150.826172 0)"/>
      <use xlink:href="#DejaVuSans-20" transform="translate(212.349609 0)"/>
      <use xlink:href="#DejaVuSans-50" transform="translate(244.136719 0)"/>
      <use xlink:href="#DejaVuSans-6f" transform="translate(300.814453 0)"/>
      <use xlink:href="#DejaVuSans-73" transform="translate(361.996094 0)"/>
      <use xlink:href="#DejaVuSans-69" transform="translate(414.095703 0)"/>
      <use xlink:href="#DejaVuSans-74" transform="translate(441.878906 0)"/>
      <use xlink:href="#DejaVuSans-69" transform="translate(481.087891 0)"/>
      <use xlink:href="#DejaVuSans-76" transform="translate(508.871094 0)"/>
      <use xlink:href="#DejaVuSans-65" transform="translate(568.050781 0)"/>
      <use xlink:href="#DejaVuSans-20" transform="translate(629.574219 0)"/>
      <use xlink:href="#DejaVuSans-52" transform="translate(661.361328 0)"/>
      <use xlink:href="#DejaVuSans-61" transform="translate(728.59375 0)"/>
      <use xlink:href="#DejaVuSans-74" transform="translate(789.873047 0)"/>
      <use xlink:href="#DejaVuSans-65" transform="translate(829.082031 0)"/>
     </g>
    </g>
   </g>
   <g id="line2d_13">
    <path d="M 77.787273 347.76 
L 83.861469 78.832 
L 89.935666 78.832 
L 96.009862 66.608 
L 102.084059 66.608 
L 108.158255 66.608 
L 114.232452 42.16 
L 120.306648 42.16 
L 126.380845 42.16 
L 132.455041 42.16 
L 138.529238 42.16 
L 144.603434 42.16 
L 150.677631 42.16 
L 156.751827 42.16 
L 162.826024 42.16 
L 168.90022 42.16 
L 174.974417 42.16 
L 181.048613 42.16 
L 187.12281 42.16 
L 193.197006 42.16 
L 199.271203 42.16 
L 205.345399 42.16 
L 211.419596 42.16 
L 217.493792 42.16 
L 223.567989 42.16 
L 229.642185 42.16 
L 235.716382 42.16 
L 241.790579 42.16 
L 247.864775 42.16 
L 253.938972 42.16 
L 260.013168 42.16 
L 266.087365 42.16 
L 272.161561 42.16 
L 278.235758 42.16 
L 284.309954 42.16 
L 290.384151 42.16 
L 296.458347 42.16 
L 302.532544 42.16 
L 308.60674 42.16 
L 314.680937 42.16 
L 320.755133 42.16 
L 326.82933 42.16 
L 332.903526 42.16 
L 338.977723 42.16 
L 345.051919 42.16 
L 351.126116 42.16 
L 357.200312 42.16 
L 363.274509 42.16 
L 369.348705 42.16 
L 375.422902 42.16 
L 381.497098 42.16 
L 387.571295 42.16 
L 393.645491 42.16 
L 399.719688 42.16 
L 405.793884 42.16 
L 411.868081 42.16 
L 417.942277 42.16 
L 424.016474 42.16 
L 430.09067 42.16 
L 436.164867 42.16 
L 442.239063 42.16 
L 448.31326 42.16 
L 454.387456 42.16 
L 460.461653 42.16 
L 466.535849 42.16 
L 472.610046 42.16 
L 478.684242 42.16 
L 484.758439 42.16 
L 490.832635 42.16 
L 496.906832 42.16 
L 502.981028 42.16 
L 509.055225 42.16 
L 515.129421 42.16 
L 521.203618 42.16 
L 527.277815 42.16 
L 533.352011 42.16 
L 539.426208 42.16 
L 545.500404 42.16 
L 551.574601 42.16 
L 557.648797 42.16 
L 563.722994 42.16 
L 569.79719 42.16 
L 575.871387 42.16 
L 581.945583 42.16 
L 588.01978 42.16 
L 594.093976 42.16 
L 600.168173 42.16 
L 606.242369 42.16 
L 612.316566 42.16 
L 618.390762 42.16 
L 624.464959 42.16 
L 630.539155 42.16 
L 636.613352 42.16 
L 642.687548 42.16 
L 648.761745 42.16 
L 654.835941 42.16 
L 660.910138 42.16 
L 666.984334 42.16 
L 673.058531 42.16 
L 679.132727 42.16 
" clip-path="url(#pf9b23eeae1)" style="fill: none; stroke: #0000ff; stroke-width: 2; stroke-linecap: square"/>
   </g>
   <g id="line2d_14">
    <path d="M 77.787273 347.76 
L 679.132727 42.16 
" clip-path="url(#pf9b23eeae1)" style="fill: none; stroke-dasharray: 5.55,2.4; stroke-dashoffset: 0; stroke: #ff0000; stroke-width: 1.5"/>
   </g>
   <g id="patch_3">
    <path d="M 47.72 363.04 
L 47.72 26.88 
" style="fill: none; stroke: #000000; stroke-width: 0.8; stroke-linejoin: miter; stroke-linecap: square"/>
   </g>
   <g id="patch_4">
    <path d="M 709.2 363.04 
L 709.2 26.88 
" style="fill: none; stroke: #000000; stroke-width: 0.8; stroke-linejoin: miter; stroke-linecap: square"/>
   </g>
   <g id="patch_5">
    <path d="M 47.72 363.04 
L 709.2 363.04 
" style="fill: none; stroke: #000000; stroke-width: 0.8; stroke-linejoin: miter; stroke-linecap: square"/>
   </g>
   <g id="patch_6">
    <path d="M 47.72 26.88 
L 709.2 26.88 
" style="fill: none; stroke: #000000; stroke-width: 0.8; stroke-linejoin: miter; stroke-linecap: square"/>
   </g>
   <g id="text_15">
    <!-- ROC Curve with 95% CI (Bootstrap over LOOCV Folds) -->
    <g transform="translate(216.720625 20.88) scale(0.12 -0.12)">
     <defs>
      <path id="DejaVuSans-4f" d="M 2522 4238 
Q 1834 4238 1429 3725 
Q 1025 3213 1025 2328 
Q 1025 1447 1429 934 
Q 1834 422 2522 422 
Q 3209 422 3611 934 
Q 4013 1447 4013 2328 
Q 4013 3213 3611 3725 
Q 3209 4238 2522 4238 
z
M 2522 4750 
Q 3503 4750 4090 4092 
Q 4678 3434 4678 2328 
Q 4678 1225 4090 567 
Q 3503 -91 2522 -91 
Q 1538 -91 948 565 
Q 359 1222 359 2328 
Q 359 3434 948 4092 
Q 1538 4750 2522 4750 
z
" transform="scale(0.015625)"/>
      <path id="DejaVuSans-43" d="M 4122 4306 
L 4122 3641 
Q 3803 3938 3442 4084 
Q 3081 4231 2675 4231 
Q 1875 4231 1450 3742 
Q 1025 3253 1025 2328 
Q 1025 1406 1450 917 
Q 1875 428 2675 428 
Q 3081 428 3442 575 
Q 3803 722 4122 1019 
L 4122 359 
Q 3791 134 3420 21 
Q 3050 -91 2638 -91 
Q 1578 -91 968 557 
Q 359 1206 359 2328 
Q 359 3453 968 4101 
Q 1578 4750 2638 4750 
Q 3056 4750 3426 4639 
Q 3797 4528 4122 4306 
z
" transform="scale(0.015625)"/>
      <path id="DejaVuSans-77" d="M 269 3500 
L 844 3500 
L 1563 769 
L 2278 3500 
L 2956 3500 
L 3675 769 
L 4391 3500 
L 4966 3500 
L 4050 0 
L 3372 0 
L 2619 2869 
L 1863 0 
L 1184 0 
L 269 3500 
z
" transform="scale(0.015625)"/>
      <path id="DejaVuSans-68" d="M 3513 2113 
L 3513 0 
L 2938 0 
L 2938 2094 
Q 2938 2591 2744 2837 
Q 2550 3084 2163 3084 
Q 1697 3084 1428 2787 
Q 1159 2491 1159 1978 
L 1159 0 
L 581 0 
L 581 4863 
L 1159 4863 
L 1159 2956 
Q 1366 3272 1645 3428 
Q 1925 3584 2291 3584 
Q 2894 3584 3203 3211 
Q 3513 2838 3513 2113 
z
" transform="scale(0.015625)"/>
      <path id="DejaVuSans-39" d="M 703 97 
L 703 672 
Q 941 559 1184 500 
Q 1428 441 1663 441 
Q 2288 441 2617 861 
Q 2947 1281 2994 2138 
Q 2813 1869 2534 1725 
Q 2256 1581 1919 1581 
Q 1219 1581 811 2004 
Q 403 2428 403 3163 
Q 403 3881 828 4315 
Q 1253 4750 1959 4750 
Q 2769 4750 3195 4129 
Q 3622 3509 3622 2328 
Q 3622 1225 3098 567 
Q 2575 -91 1691 -91 
Q 1453 -91 1209 -44 
Q 966 3 703 97 
z
M 1959 2075 
Q 2384 2075 2632 2365 
Q 2881 2656 2881 3163 
Q 2881 3666 2632 3958 
Q 2384 4250 1959 4250 
Q 1534 4250 1286 3958 
Q 1038 3666 1038 3163 
Q 1038 2656 1286 2365 
Q 1534 2075 1959 2075 
z
" transform="scale(0.015625)"/>
      <path id="DejaVuSans-35" d="M 691 4666 
L 3169 4666 
L 3169 4134 
L 1269 4134 
L 1269 2991 
Q 1406 3038 1543 3061 
Q 1681 3084 1819 3084 
Q 2600 3084 3056 2656 
Q 3513 2228 3513 1497 
Q 3513 744 3044 326 
Q 2575 -91 1722 -91 
Q 1428 -91 1123 -41 
Q 819 9 494 109 
L 494 744 
Q 775 591 1075 516 
Q 1375 441 1709 441 
Q 2250 441 2565 725 
Q 2881 1009 2881 1497 
Q 2881 1984 2565 2268 
Q 2250 2553 1709 2553 
Q 1456 2553 1204 2497 
Q 953 2441 691 2322 
L 691 4666 
z
" transform="scale(0.015625)"/>
      <path id="DejaVuSans-25" d="M 4653 2053 
Q 4381 2053 4226 1822 
Q 4072 1591 4072 1178 
Q 4072 772 4226 539 
Q 4381 306 4653 306 
Q 4919 306 5073 539 
Q 5228 772 5228 1178 
Q 5228 1588 5073 1820 
Q 4919 2053 4653 2053 
z
M 4653 2450 
Q 5147 2450 5437 2106 
Q 5728 1763 5728 1178 
Q 5728 594 5436 251 
Q 5144 -91 4653 -91 
Q 4153 -91 3862 251 
Q 3572 594 3572 1178 
Q 3572 1766 3864 2108 
Q 4156 2450 4653 2450 
z
M 1428 4353 
Q 1159 4353 1004 4120 
Q 850 3888 850 3481 
Q 850 3069 1003 2837 
Q 1156 2606 1428 2606 
Q 1700 2606 1854 2837 
Q 2009 3069 2009 3481 
Q 2009 3884 1853 4118 
Q 1697 4353 1428 4353 
z
M 4250 4750 
L 4750 4750 
L 1831 -91 
L 1331 -91 
L 4250 4750 
z
M 1428 4750 
Q 1922 4750 2215 4408 
Q 2509 4066 2509 3481 
Q 2509 2891 2217 2550 
Q 1925 2209 1428 2209 
Q 931 2209 642 2551 
Q 353 2894 353 3481 
Q 353 4063 643 4406 
Q 934 4750 1428 4750 
z
" transform="scale(0.015625)"/>
      <path id="DejaVuSans-49" d="M 628 4666 
L 1259 4666 
L 1259 0 
L 628 0 
L 628 4666 
z
" transform="scale(0.015625)"/>
      <path id="DejaVuSans-28" d="M 1984 4856 
Q 1566 4138 1362 3434 
Q 1159 2731 1159 2009 
Q 1159 1288 1364 580 
Q 1569 -128 1984 -844 
L 1484 -844 
Q 1016 -109 783 600 
Q 550 1309 550 2009 
Q 550 2706 781 3412 
Q 1013 4119 1484 4856 
L 1984 4856 
z
" transform="scale(0.015625)"/>
      <path id="DejaVuSans-42" d="M 1259 2228 
L 1259 519 
L 2272 519 
Q 2781 519 3026 730 
Q 3272 941 3272 1375 
Q 3272 1813 3026 2020 
Q 2781 2228 2272 2228 
L 1259 2228 
z
M 1259 4147 
L 1259 2741 
L 2194 2741 
Q 2656 2741 2882 2914 
Q 3109 3088 3109 3444 
Q 3109 3797 2882 3972 
Q 2656 4147 2194 4147 
L 1259 4147 
z
M 628 4666 
L 2241 4666 
Q 2963 4666 3353 4366 
Q 3744 4066 3744 3513 
Q 3744 3084 3544 2831 
Q 3344 2578 2956 2516 
Q 3422 2416 3680 2098 
Q 3938 1781 3938 1306 
Q 3938 681 3513 340 
Q 3088 0 2303 0 
L 628 0 
L 628 4666 
z
" transform="scale(0.015625)"/>
      <path id="DejaVuSans-70" d="M 1159 525 
L 1159 -1331 
L 581 -1331 
L 581 3500 
L 1159 3500 
L 1159 2969 
Q 1341 3281 1617 3432 
Q 1894 3584 2278 3584 
Q 2916 3584 3314 3078 
Q 3713 2572 3713 1747 
Q 3713 922 3314 415 
Q 2916 -91 2278 -91 
Q 1894 -91 1617 61 
Q 1341 213 1159 525 
z
M 3116 1747 
Q 3116 2381 2855 2742 
Q 2594 3103 2138 3103 
Q 1681 3103 1420 2742 
Q 1159 2381 1159 1747 
Q 1159 1113 1420 752 
Q 1681 391 2138 391 
Q 2594 391 2855 752 
Q 3116 1113 3116 1747 
z
" transform="scale(0.015625)"/>
      <path id="DejaVuSans-4c" d="M 628 4666 
L 1259 4666 
L 1259 531 
L 3531 531 
L 3531 0 
L 628 0 
L 628 4666 
z
" transform="scale(0.015625)"/>
      <path id="DejaVuSans-56" d="M 1831 0 
L 50 4666 
L 709 4666 
L 2188 738 
L 3669 4666 
L 4325 4666 
L 2547 0 
L 1831 0 
z
" transform="scale(0.015625)"/>
      <path id="DejaVuSans-64" d="M 2906 2969 
L 2906 4863 
L 3481 4863 
L 3481 0 
L 2906 0 
L 2906 525 
Q 2725 213 2448 61 
Q 2172 -91 1784 -91 
Q 1150 -91 751 415 
Q 353 922 353 1747 
Q 353 2572 751 3078 
Q 1150 3584 1784 3584 
Q 2172 3584 2448 3432 
Q 2725 3281 2906 2969 
z
M 947 1747 
Q 947 1113 1208 752 
Q 1469 391 1925 391 
Q 2381 391 2643 752 
Q 2906 1113 2906 1747 
Q 2906 2381 2643 2742 
Q 2381 3103 1925 3103 
Q 1469 3103 1208 2742 
Q 947 2381 947 1747 
z
" transform="scale(0.015625)"/>
      <path id="DejaVuSans-29" d="M 513 4856 
L 1013 4856 
Q 1481 4119 1714 3412 
Q 1947 2706 1947 2009 
Q 1947 1309 1714 600 
Q 1481 -109 1013 -844 
L 513 -844 
Q 928 -128 1133 580 
Q 1338 1288 1338 2009 
Q 1338 2731 1133 3434 
Q 928 4138 513 4856 
z
" transform="scale(0.015625)"/>
     </defs>
     <use xlink:href="#DejaVuSans-52"/>
     <use xlink:href="#DejaVuSans-4f" transform="translate(69.482422 0)"/>
     <use xlink:href="#DejaVuSans-43" transform="translate(148.193359 0)"/>
     <use xlink:href="#DejaVuSans-20" transform="translate(218.017578 0)"/>
     <use xlink:href="#DejaVuSans-43" transform="translate(249.804688 0)"/>
     <use xlink:href="#DejaVuSans-75" transform="translate(319.628906 0)"/>
     <use xlink:href="#DejaVuSans-72" transform="translate(383.007812 0)"/>
     <use xlink:href="#DejaVuSans-76" transform="translate(424.121094 0)"/>
     <use xlink:href="#DejaVuSans-65" transform="translate(483.300781 0)"/>
     <use xlink:href="#DejaVuSans-20" transform="translate(544.824219 0)"/>
     <use xlink:href="#DejaVuSans-77" transform="translate(576.611328 0)"/>
     <use xlink:href="#DejaVuSans-69" transform="translate(658.398438 0)"/>
     <use xlink:href="#DejaVuSans-74" transform="translate(686.181641 0)"/>
     <use xlink:href="#DejaVuSans-68" transform="translate(725.390625 0)"/>
     <use xlink:href="#DejaVuSans-20" transform="translate(788.769531 0)"/>
     <use xlink:href="#DejaVuSans-39" transform="translate(820.556641 0)"/>
     <use xlink:href="#DejaVuSans-35" transform="translate(884.179688 0)"/>
     <use xlink:href="#DejaVuSans-25" transform="translate(947.802734 0)"/>
     <use xlink:href="#DejaVuSans-20" transform="translate(1042.822266 0)"/>
     <use xlink:href="#DejaVuSans-43" transform="translate(1074.609375 0)"/>
     <use xlink:href="#DejaVuSans-49" transform="translate(1144.433594 0)"/>
     <use xlink:href="#DejaVuSans-20" transform="translate(1173.925781 0)"/>
     <use xlink:href="#DejaVuSans-28" transform="translate(1205.712891 0)"/>
     <use xlink:href="#DejaVuSans-42" transform="translate(1244.726562 0)"/>
     <use xlink:href="#DejaVuSans-6f" transform="translate(1313.330078 0)"/>
     <use xlink:href="#DejaVuSans-6f" transform="translate(1374.511719 0)"/>
     <use xlink:href="#DejaVuSans-74" transform="translate(1435.693359 0)"/>
     <use xlink:href="#DejaVuSans-73" transform="translate(1474.902344 0)"/>
     <use xlink:href="#DejaVuSans-74" transform="translate(1527.001953 0)"/>
     <use xlink:href="#DejaVuSans-72" transform="translate(1566.210938 0)"/>
     <use xlink:href="#DejaVuSans-61" transform="translate(1607.324219 0)"/>
     <use xlink:href="#DejaVuSans-70" transform="translate(1668.603516 0)"/>
     <use xlink:href="#DejaVuSans-20" transform="translate(1732.080078 0)"/>
     <use xlink:href="#DejaVuSans-6f" transform="translate(1763.867188 0)"/>
     <use xlink:href="#DejaVuSans-76" transform="translate(1825.048828 0)"/>
     <use xlink:href="#DejaVuSans-65" transform="translate(1884.228516 0)"/>
     <use xlink:href="#DejaVuSans-72" transform="translate(1945.751953 0)"/>
     <use xlink:href="#DejaVuSans-20" transform="translate(1986.865234 0)"/>
     <use xlink:href="#DejaVuSans-4c" transform="translate(2018.652344 0)"/>
     <use xlink:href="#DejaVuSans-4f" transform="translate(2070.740234 0)"/>
     <use xlink:href="#DejaVuSans-4f" transform="translate(2149.451172 0)"/>
     <use xlink:href="#DejaVuSans-43" transform="translate(2228.162109 0)"/>
     <use xlink:href="#DejaVuSans-56" transform="translate(2297.986328 0)"/>
     <use xlink:href="#DejaVuSans-20" transform="translate(2366.394531 0)"/>
     <use xlink:href="#DejaVuSans-46" transform="translate(2398.181641 0)"/>
     <use xlink:href="#DejaVuSans-6f" transform="translate(2452.076172 0)"/>
     <use xlink:href="#DejaVuSans-6c" transform="translate(2513.257812 0)"/>
     <use xlink:href="#DejaVuSans-64" transform="translate(2541.041016 0)"/>
     <use xlink:href="#DejaVuSans-73" transform="translate(2604.517578 0)"/>
     <use xlink:href="#DejaVuSans-29" transform="translate(2656.617188 0)"/>
    </g>
   </g>
   <g id="legend_1">
    <g id="patch_7">
     <path d="M 425.576563 358.04 
L 702.2 358.04 
Q 704.2 358.04 704.2 356.04 
L 704.2 313.005625 
Q 704.2 311.005625 702.2 311.005625 
L 425.576563 311.005625 
Q 423.576563 311.005625 423.576563 313.005625 
L 423.576563 356.04 
Q 423.576563 358.04 425.576563 358.04 
z
" style="fill: #ffffff; opacity: 0.8; stroke: #cccccc; stroke-linejoin: miter"/>
    </g>
    <g id="line2d_15">
     <path d="M 427.576563 319.104063 
L 437.576563 319.104063 
L 447.576563 319.104063 
" style="fill: none; stroke: #0000ff; stroke-width: 2; stroke-linecap: square"/>
    </g>
    <g id="text_16">
     <!-- Mean ROC (AUC = 0.995, 95% CI: [0.982-1.000]) -->
     <g transform="translate(455.576563 322.604063) scale(0.1 -0.1)">
      <defs>
       <path id="DejaVuSans-4d" d="M 628 4666 
L 1569 4666 
L 2759 1491 
L 3956 4666 
L 4897 4666 
L 4897 0 
L 4281 0 
L 4281 4097 
L 3078 897 
L 2444 897 
L 1241 4097 
L 1241 0 
L 628 0 
L 628 4666 
z
" transform="scale(0.015625)"/>
       <path id="DejaVuSans-6e" d="M 3513 2113 
L 3513 0 
L 2938 0 
L 2938 2094 
Q 2938 2591 2744 2837 
Q 2550 3084 2163 3084 
Q 1697 3084 1428 2787 
Q 1159 2491 1159 1978 
L 1159 0 
L 581 0 
L 581 3500 
L 1159 3500 
L 1159 2956 
Q 1366 3272 1645 3428 
Q 1925 3584 2291 3584 
Q 2894 3584 3203 3211 
Q 3513 2838 3513 2113 
z
" transform="scale(0.015625)"/>
       <path id="DejaVuSans-41" d="M 2188 4044 
L 1331 1722 
L 3047 1722 
L 2188 4044 
z
M 1831 4666 
L 2547 4666 
L 4325 0 
L 3669 0 
L 3244 1197 
L 1141 1197 
L 716 0 
L 50 0 
L 1831 4666 
z
" transform="scale(0.015625)"/>
       <path id="DejaVuSans-55" d="M 556 4666 
L 1191 4666 
L 1191 1831 
Q 1191 1081 1462 751 
Q 1734 422 2344 422 
Q 2950 422 3222 751 
Q 3494 1081 3494 1831 
L 3494 4666 
L 4128 4666 
L 4128 1753 
Q 4128 841 3676 375 
Q 3225 -91 2344 -91 
Q 1459 -91 1007 375 
Q 556 841 556 1753 
L 556 4666 
z
" transform="scale(0.015625)"/>
       <path id="DejaVuSans-3d" d="M 678 2906 
L 4684 2906 
L 4684 2381 
L 678 2381 
L 678 2906 
z
M 678 1631 
L 4684 1631 
L 4684 1100 
L 678 1100 
L 678 1631 
z
" transform="scale(0.015625)"/>
       <path id="DejaVuSans-2c" d="M 750 794 
L 1409 794 
L 1409 256 
L 897 -744 
L 494 -744 
L 750 256 
L 750 794 
z
" transform="scale(0.015625)"/>
       <path id="DejaVuSans-3a" d="M 750 794 
L 1409 794 
L 1409 0 
L 750 0 
L 750 794 
z
M 750 3309 
L 1409 3309 
L 1409 2516 
L 750 2516 
L 750 3309 
z
" transform="scale(0.015625)"/>
       <path id="DejaVuSans-5b" d="M 550 4863 
L 1875 4863 
L 1875 4416 
L 1125 4416 
L 1125 -397 
L 1875 -397 
L 1875 -844 
L 550 -844 
L 550 4863 
z
" transform="scale(0.015625)"/>
       <path id="DejaVuSans-2d" d="M 313 2009 
L 1997 2009 
L 1997 1497 
L 313 1497 
L 313 2009 
z
" transform="scale(0.015625)"/>
       <path id="DejaVuSans-5d" d="M 1947 4863 
L 1947 -844 
L 622 -844 
L 622 -397 
L 1369 -397 
L 1369 4416 
L 622 4416 
L 622 4863 
L 1947 4863 
z
" transform="scale(0.015625)"/>
      </defs>
      <use xlink:href="#DejaVuSans-4d"/>
      <use xlink:href="#DejaVuSans-65" transform="translate(86.279297 0)"/>
      <use xlink:href="#DejaVuSans-61" transform="translate(147.802734 0)"/>
      <use xlink:href="#DejaVuSans-6e" transform="translate(209.082031 0)"/>
      <use xlink:href="#DejaVuSans-20" transform="translate(272.460938 0)"/>
      <use xlink:href="#DejaVuSans-52" transform="translate(304.248047 0)"/>
      <use xlink:href="#DejaVuSans-4f" transform="translate(373.730469 0)"/>
      <use xlink:href="#DejaVuSans-43" transform="translate(452.441406 0)"/>
      <use xlink:href="#DejaVuSans-20" transform="translate(522.265625 0)"/>
      <use xlink:href="#DejaVuSans-28" transform="translate(554.052734 0)"/>
      <use xlink:href="#DejaVuSans-41" transform="translate(593.066406 0)"/>
      <use xlink:href="#DejaVuSans-55" transform="translate(661.474609 0)"/>
      <use xlink:href="#DejaVuSans-43" transform="translate(734.667969 0)"/>
      <use xlink:href="#DejaVuSans-20" transform="translate(804.492188 0)"/>
      <use xlink:href="#DejaVuSans-3d" transform="translate(836.279297 0)"/>
      <use xlink:href="#DejaVuSans-20" transform="translate(920.068359 0)"/>
      <use xlink:href="#DejaVuSans-30" transform="translate(951.855469 0)"/>
      <use xlink:href="#DejaVuSans-2e" transform="translate(1015.478516 0)"/>
      <use xlink:href="#DejaVuSans-39" transform="translate(1047.265625 0)"/>
      <use xlink:href="#DejaVuSans-39" transform="translate(1110.888672 0)"/>
      <use xlink:href="#DejaVuSans-35" transform="translate(1174.511719 0)"/>
      <use xlink:href="#DejaVuSans-2c" transform="translate(1238.134766 0)"/>
      <use xlink:href="#DejaVuSans-20" transform="translate(1269.921875 0)"/>
      <use xlink:href="#DejaVuSans-39" transform="translate(1301.708984 0)"/>
      <use xlink:href="#DejaVuSans-35" transform="translate(1365.332031 0)"/>
      <use xlink:href="#DejaVuSans-25" transform="translate(1428.955078 0)"/>
      <use xlink:href="#DejaVuSans-20" transform="translate(1523.974609 0)"/>
      <use xlink:href="#DejaVuSans-43" transform="translate(1555.761719 0)"/>
      <use xlink:href="#DejaVuSans-49" transform="translate(1625.585938 0)"/>
      <use xlink:href="#DejaVuSans-3a" transform="translate(1655.078125 0)"/>
      <use xlink:href="#DejaVuSans-20" transform="translate(1688.769531 0)"/>
      <use xlink:href="#DejaVuSans-5b" transform="translate(1720.556641 0)"/>
      <use xlink:href="#DejaVuSans-30" transform="translate(1759.570312 0)"/>
      <use xlink:href="#DejaVuSans-2e" transform="translate(1823.193359 0)"/>
      <use xlink:href="#DejaVuSans-39" transform="translate(1854.980469 0)"/>
      <use xlink:href="#DejaVuSans-38" transform="translate(1918.603516 0)"/>
      <use xlink:href="#DejaVuSans-32" transform="translate(1982.226562 0)"/>
      <use xlink:href="#DejaVuSans-2d" transform="translate(2045.849609 0)"/>
      <use xlink:href="#DejaVuSans-31" transform="translate(2081.933594 0)"/>
      <use xlink:href="#DejaVuSans-2e" transform="translate(2145.556641 0)"/>
      <use xlink:href="#DejaVuSans-30" transform="translate(2177.34375 0)"/>
      <use xlink:href="#DejaVuSans-30" transform="translate(2240.966797 0)"/>
      <use xlink:href="#DejaVuSans-30" transform="translate(2304.589844 0)"/>
      <use xlink:href="#DejaVuSans-5d" transform="translate(2368.212891 0)"/>
      <use xlink:href="#DejaVuSans-29" transform="translate(2407.226562 0)"/>
     </g>
    </g>
    <g id="patch_8">
     <path d="M 427.576563 337.282188 
L 447.576563 337.282188 
L 447.576563 330.282188 
L 427.576563 330.282188 
z
" style="fill: #808080; fill-opacity: 0.2; stroke: #808080; stroke-opacity: 0.2; stroke-linejoin: miter"/>
    </g>
    <g id="text_17">
     <!-- 95% CI (Bootstrap) -->
     <g transform="translate(455.576563 337.282188) scale(0.1 -0.1)">
      <use xlink:href="#DejaVuSans-39"/>
      <use xlink:href="#DejaVuSans-35" transform="translate(63.623047 0)"/>
      <use xlink:href="#DejaVuSans-25" transform="translate(127.246094 0)"/>
      <use xlink:href="#DejaVuSans-20" transform="translate(222.265625 0)"/>
      <use xlink:href="#DejaVuSans-43" transform="translate(254.052734 0)"/>
      <use xlink:href="#DejaVuSans-49" transform="translate(323.876953 0)"/>
      <use xlink:href="#DejaVuSans-20" transform="translate(353.369141 0)"/>
      <use xlink:href="#DejaVuSans-28" transform="translate(385.15625 0)"/>
      <use xlink:href="#DejaVuSans-42" transform="translate(424.169922 0)"/>
      <use xlink:href="#DejaVuSans-6f" transform="translate(492.773438 0)"/>
      <use xlink:href="#DejaVuSans-6f" transform="translate(553.955078 0)"/>
      <use xlink:href="#DejaVuSans-74" transform="translate(615.136719 0)"/>
      <use xlink:href="#DejaVuSans-73" transform="translate(654.345703 0)"/>
      <use xlink:href="#DejaVuSans-74" transform="translate(706.445312 0)"/>
      <use xlink:href="#DejaVuSans-72" transform="translate(745.654297 0)"/>
      <use xlink:href="#DejaVuSans-61" transform="translate(786.767578 0)"/>
      <use xlink:href="#DejaVuSans-70" transform="translate(848.046875 0)"/>
      <use xlink:href="#DejaVuSans-29" transform="translate(911.523438 0)"/>
     </g>
    </g>
    <g id="line2d_16">
     <path d="M 427.576563 348.460313 
L 437.576563 348.460313 
L 447.576563 348.460313 
" style="fill: none; stroke-dasharray: 5.55,2.4; stroke-dashoffset: 0; stroke: #ff0000; stroke-width: 1.5"/>
    </g>
    <g id="text_18">
     <!-- Random -->
     <g transform="translate(455.576563 351.960313) scale(0.1 -0.1)">
      <defs>
       <path id="DejaVuSans-6d" d="M 3328 2828 
Q 3544 3216 3844 3400 
Q 4144 3584 4550 3584 
Q 5097 3584 5394 3201 
Q 5691 2819 5691 2113 
L 5691 0 
L 5113 0 
L 5113 2094 
Q 5113 2597 4934 2840 
Q 4756 3084 4391 3084 
Q 3944 3084 3684 2787 
Q 3425 2491 3425 1978 
L 3425 0 
L 2847 0 
L 2847 2094 
Q 2847 2600 2669 2842 
Q 2491 3084 2119 3084 
Q 1678 3084 1418 2786 
Q 1159 2488 1159 1978 
L 1159 0 
L 581 0 
L 581 3500 
L 1159 3500 
L 1159 2956 
Q 1356 3278 1631 3431 
Q 1906 3584 2284 3584 
Q 2666 3584 2933 3390 
Q 3200 3197 3328 2828 
z
" transform="scale(0.015625)"/>
      </defs>
      <use xlink:href="#DejaVuSans-52"/>
      <use xlink:href="#DejaVuSans-61" transform="translate(67.232422 0)"/>
      <use xlink:href="#DejaVuSans-6e" transform="translate(128.511719 0)"/>
      <use xlink:href="#DejaVuSans-64" transform="translate(191.890625 0)"/>
      <use xlink:href="#DejaVuSans-6f" transform="translate(255.367188 0)"/>
      <use xlink:href="#DejaVuSans-6d" transform="translate(316.548828 0)"/>
     </g>
    </g>
   </g>
  </g>
 </g>
 <defs>
  <clipPath id="pf9b23eeae1">
   <rect x="47.72" y="26.88" width="661.48" height="336.16"/>
  </clipPath>
 </defs>
</svg>
